<svg width="360" height="360" viewBox="0 0 360 360" fill="none" xmlns="http://www.w3.org/2000/svg">
<path d="M146.76 92.6067C146.76 96.0259 147.139 102.939 147.525 108.482C147.88 113.596 149.059 117.294 149.536 120.94C150.382 127.411 150.208 132.798 150.685 140.447C151.453 152.761 150.593 161.56 150.211 162.896C148.836 167.705 148.875 175.898 148.674 184.713C148.575 189.055 150.013 192.011 150.493 204.14C150.59 206.594 151.346 206.769 152.303 206.866C154.577 207.098 156.524 207.154 157.006 207.536C157.733 208.111 153.673 208.113 151.467 208.208C149.371 208.298 159.931 209.263 165.514 208.596C166.877 208.433 168.563 207.929 177.407 207.734C186.251 207.539 202.18 207.539 210.861 207.349C220.504 207.138 227.724 206.389 237.68 206.484C241.379 206.519 242.326 206.769 248.409 206.866C254.492 206.964 265.68 206.964 271.823 207.154C281.304 207.446 285.816 209.642 288.308 210.314C289.966 210.762 291.569 210.602 297.077 210.889C311.289 211.63 321.451 210.797 322.692 210.415C324.108 209.979 325.663 209.648 327.097 209.265C327.776 209.085 328.341 208.883 328.634 207.648C330.205 201.027 320.307 201.24 319.831 194.592C319.082 184.156 327.203 172.312 326.726 169.335C326.103 165.444 330.93 162.623 330.358 159.451C329.469 154.519 330.367 132.864 322.034 144.817C320.064 147.644 320.503 138.028 319.831 132.864C318.045 119.154 318.204 116.754 317.437 112.927C316.769 109.592 314.572 106.605 313.225 104.108C311.858 101.576 309.975 99.1348 307.197 97.2097C305.996 96.3781 304.608 95.865 299.002 95.4828C285.268 94.5466 274.731 94.7157 271.867 94.4283C265.945 93.8344 262.474 94.9053 257.595 94.2387C251.149 93.358 241.637 92.4228 229.741 92.1268C223.77 91.9783 216.892 92.2274 210.958 91.8424C205.986 91.5197 196.819 90.8827 186.484 90.9775C177.033 91.0642 172.057 92.2159 169.089 93.1784C165.766 94.2558 164.006 95.0949 163.428 95.9512C161.27 99.1513 168 102.928 171.459 105.72C174.97 108.555 181.791 108.881 198.307 108.987C203.418 109.02 208.341 108.134 215.053 107.841C230.097 107.184 240.413 107.737 243.662 108.214C245.215 108.442 246.533 108.881 252.906 110.214C259.279 111.547 270.657 113.823 277.656 115.09C292.24 117.73 299.039 118.656 299.332 119.038C300.224 120.2 292.005 120.943 281.124 123.429C275.033 124.82 267.588 125.535 257.71 126.118C247.831 126.701 235.695 126.891 227.451 127.368C219.208 127.845 215.225 128.603 208.243 129.184C201.261 129.764 191.4 130.143 181.484 129.485C171.568 128.827 161.897 127.121 156.346 126.241C150.794 125.362 149.656 125.362 149.544 125.457C147.516 127.174 154.794 127.27 158.716 129.184C161.202 130.397 164.167 134.344 168.755 138.074C172.429 141.059 177.378 143.544 183.113 146.222C187.946 148.479 193.658 149.492 209.163 150.354C221.428 151.036 242.682 150.647 254.382 150.552C269.935 150.426 273.358 149.498 276.335 148.926C281.802 147.876 289.057 145.487 293.284 144.806C297.313 144.157 302.275 143.372 305.929 143.082C306.703 143.02 307.458 142.797 306.047 144.691C297.722 155.865 294.275 157.532 286.928 159.451C282.928 160.496 275.817 160.784 265.945 161.08C256.072 161.376 243.556 161.187 236.729 160.994C229.902 160.802 229.143 160.612 219.271 160.514C209.398 160.417 190.434 160.417 181.329 161.27C172.223 162.123 173.551 163.83 174.614 166.416C178.924 176.901 177.596 181.099 177.887 182.245C178.535 184.807 174.16 184.742 173.485 185.124C172.527 185.666 180.234 185.702 190.641 185.322C202.8 184.879 211.105 183.403 215.872 183.118C218.939 182.935 223.293 182.265 229.238 181.972C242.566 181.315 251.716 181.3 254.868 180.63C260.637 179.405 264.163 179.196 274.389 177.185C278.164 176.443 280.644 175.743 286.92 175.455C301.145 174.804 309.59 175.737 307.774 176.786C303.548 179.226 301.355 184.529 300.102 188.084C299.46 189.905 299.045 192.201 298.666 194.592C298.038 198.55 293.31 199.482 290.531 200.735C287.408 202.143 284.311 207.7 282.768 211.739C281.204 215.834 278.38 222.238 276.067 228.396C272.18 238.745 269.358 247.742 268.973 252.44C268.578 257.265 266.68 260.2 265.721 265.076C264.059 273.517 260.554 277.245 259.112 280.13C258.836 280.681 257.876 280.52 256.727 279.193C253.59 275.57 251.36 265.269 249.731 253.687C248.085 241.989 250.004 231.111 249.535 228.617C249.393 227.86 247.544 228.226 246.765 228.89C243.467 231.702 244.268 235.685 243.783 244.665C243.646 247.191 242.924 248.334 241.97 249.291C241.48 249.782 240.637 249.868 239.961 249.871C239.286 249.874 238.717 249.684 238.329 248.923C237.346 246.992 237.556 242.432 237.556 240.49C237.556 227.857 238.131 256.557 236.605 263.35C235.583 267.903 234.304 270.544 231.439 273.806C229.176 276.382 224.925 277.636 222.339 279.46C218.939 281.86 216.306 282.428 213.527 284.44C211.126 286.177 208.26 287.026 205.58 288.083C200.498 290.087 194.859 289.899 190.164 291.433C186.555 292.613 182.791 293.921 179.909 294.884C176.289 296.093 169.413 299.082 165.063 300.631C162.123 301.677 159.035 302.737 151.197 306.366C147.267 308.185 145.042 309.058 144.085 309.917C142.079 311.718 143.692 315.563 143.792 318.342C143.838 319.617 143.312 321.31 143.597 323.223C144.006 325.975 147.898 326.298 150.2 327.16C152.808 328.137 156.127 329.93 159.773 331.088C162.491 331.951 165.517 333.194 168.968 333.484C171.911 333.731 175.286 334.538 180.74 335.492C184.45 336.141 188.687 336.262 191.477 334.642C195.885 332.081 199.422 329.183 202.396 327.266C205.221 325.445 210.904 324.965 214.464 324.674C217.248 324.447 224.661 319.816 229.503 317.876C233.785 316.161 241.751 316.54 244.539 315.483C248.655 313.921 253.819 310.793 257.56 309.736C260.666 308.858 277.475 305.425 264 302.541C259.891 301.662 278.375 301.682 278.668 300.631C279.993 295.875 284.667 295.875 285.92 292.12C286.829 289.394 288.69 286.853 290.609 283.983C294.78 277.745 296.528 267.349 299.611 263.956C301.313 262.082 306.86 260.993 311.007 258.597C314.254 256.72 314.549 249.719 316.756 245.955C318.838 242.404 322.595 238.777 324.896 235.993C326.672 233.845 305.138 226.954 306 226C306.432 225.521 319.423 215.869 327.097 224C327.6 224.533 329.514 229.387 328.462 229.094C323.568 227.73 319.94 230.33 316.874 231.956C312.111 234.483 308.446 233.582 304.711 234.64C300.679 235.781 298.861 236.846 297.617 237.131C294.487 237.846 292.172 248.282 290.238 254.643C288.911 259.009 285.472 264.2 278.668 277.886C276.303 282.642 273.967 285.681 270.993 288.747C268.371 291.45 263.048 292.014 260.362 293.445C257.121 295.171 251.762 294.312 242.588 294.694C231.76 295.145 223.397 294.692 220.529 295.551C215.544 297.044 210.387 300.231 205.393 302.541C199.102 305.451 191.227 309.621 185.386 313.069C176.213 318.484 165.804 321.287 159.509 324.571C157.149 325.802 154.817 327.252 152.231 328.881C150.32 330.085 147.731 331.274 145.625 332.708C144.773 333.288 146.755 331.536 147.5 331.545C156.372 331.657 147.71 328.71 152.5 329C154.621 329.129 164.415 335.682 173.5 335.492C183.7 335.279 189.055 334.55 195.201 333.774C203.044 332.784 212.995 331.677 218.863 330.614C222.183 330.012 224.854 328.572 229 328C229.696 327.904 229.897 322.882 230 322.5C230.259 321.544 232.385 322.896 232.574 314.963C232.742 307.957 234.103 302.191 235.249 297.887C237.551 291.272 238.706 284.75 238.801 282.167C238.895 281.101 239.085 280.532 239.28 279.946" stroke="url(#paint0_linear_0_1)" stroke-width="45" stroke-linecap="round"/>
<path d="M52.4948 113.052C51.0638 117.76 47.7496 128.105 46.4085 131.109C45.1014 134.037 42.8062 136.988 39.9102 139.884C39.0832 140.711 38.0611 141.733 37.1257 142.158C36.1902 142.582 35.3725 142.378 34.8491 141.659C34.3256 140.94 34.1212 139.714 34.4247 138.469C35.622 133.558 36.6447 117.695 38.5 115.214C40.1616 112.992 43.8098 122.988 45.6744 118.952C48.0175 113.88 49.5956 109.967 53.8205 101.316C55.6785 97.5111 57.4382 94.2816 60.6378 89.84C64.2491 84.8268 66.309 79.6373 70.2396 74.1456C72.9648 70.338 74.9941 67.8425 77.8808 64.8474C80.7772 61.8422 84.2738 58.761 89.9481 53.6039C96.0498 48.0585 99.9712 46.7804 109.644 41.8339C122.013 35.5087 125.989 35.8281 130.933 33.9759C142.584 29.6102 147.051 29.844 152.71 28.9086C161.295 27.4896 168.324 29.0077 170.489 29.4197C177.281 30.7119 188.965 29.2245 194.438 28.7011C196.219 28.5308 205.214 28.1838 218.833 28.3882C228.498 28.5333 231.708 30.4511 237.178 33.6414C242.583 36.7937 245.547 38.2936 250.088 41.0782C254.234 43.6206 258.135 44.8972 261.248 46.2477C263.837 47.3707 266.201 48.4158 268.784 49.757C271.571 51.2038 274.254 51.5132 276.735 52.8543C279.3 54.2411 282.716 55.6389 286.95 57.7048C287.873 58.1554 288.502 58.3274 288.715 58.7393C288.929 59.1513 288.725 59.7646 288.108 60.0805C284.771 61.791 275.369 61.0159 267.585 60.5017C260.739 60.0495 255.688 60.6009 252.306 60.9106C237.109 62.3022 230.916 55.6513 227.923 54.2079C222.771 51.7224 217.51 51.315 210.999 49.5618C207.263 48.5557 196.101 48.6264 186.323 49.757C182.949 50.147 179.71 50.8937 175.581 52.2349C172.992 53.076 170.616 53.1672 169.581 53.7836C169.182 54.0218 169.773 54.8088 170.393 55.1247C174.551 57.2456 182.349 58.3274 188.342 60.1827C189.975 60.6881 191.839 60.8053 198.102 60.9106C214.993 61.1946 225.334 60.8115 223.894 60.2973C223.062 60.0004 222.045 59.5787 215.181 59.3681C208.317 59.1575 195.643 59.1575 188.296 58.9531C176.362 58.621 171.867 57.5097 160.695 56.788C151.581 56.1992 135.417 56.2707 126.689 56.3699C115.223 56.5001 111.568 58.3274 109.081 59.3588C107.973 59.8183 108.247 63.469 108.554 67.4925C108.854 71.4308 112.571 73.8018 113.82 76.4935C115.486 80.087 114.033 85.7825 113.925 95.0498C113.85 101.482 114.033 108.083 113.002 110.36C111.706 113.22 106.81 113.659 104.438 115.214C102.733 116.331 101.644 118.001 101.331 119.033C100.604 121.431 106.996 119.457 110.093 118.218C110.889 117.9 111.741 118.007 111.243 118.007C104.307 118.007 98.7571 124.809 94.3278 129.551C90.6754 133.462 88.226 135.96 85.4415 139.057C82.7406 142.062 78.3392 146.677 74.9104 150.62C70.6396 155.531 68.8117 158.261 68.6011 161.358C68.3612 164.886 66.5444 168.172 64.7882 171.168C63.1447 173.97 59.9532 176.634 55.6076 180.968C50.2842 186.276 49.608 192.319 45.8014 198.208C42.8529 202.768 40.9354 205.13 40.6226 208.54C40.2144 212.99 39.6965 217.111 40.1022 220.208C40.5451 223.589 41.3443 227.221 41.8584 231.56C42.4197 236.297 39.9071 238.792 39.5881 244.358C39.4052 247.549 40.7248 250.761 40.3128 253.663C39.9456 256.25 41.9637 260.251 41.5549 264.587C40.8781 271.766 40.3035 239.437 40.1084 236.956C39.8977 234.277 35.7938 227.914 33.8115 222.711C33.1715 221.031 31.4451 215.11 29.5867 205.322C27.0085 191.744 28.3353 184.142 29.5681 176.569C30.3515 171.757 64.7882 150.62 33.5947 163.455C27.217 166.079 21.7942 159.027 25 155C26.6942 152.872 51.2063 137.713 59.0488 123.883C63.8148 115.479 66.3214 112.649 71.5467 106.91C75.8929 102.136 83.9269 93.8108 88.4428 88.8798C93.9448 82.8722 95.0278 80.6408 95.6473 80.3218C101.059 77.5347 91.9552 93.402 88.2322 102.579C82.8153 115.933 84.2985 119.853 82.9574 122.849C81.6537 125.76 78.5251 128.935 76.4529 130.809C73.9693 133.055 79.5286 122.988 81.3963 118.441C82.0127 116.793 83.0348 114.34 83.9702 112.974C84.9056 111.608 85.7233 111.404 87.1853 110.574" stroke="url(#paint1_linear_0_1)" stroke-width="30" stroke-linecap="round"/>
<path d="M90.7283 224.857C90.092 225.493 89.446 227.093 88.6458 229.896C87.6945 233.229 85.5993 241.024 83.5915 252.092C81.0808 265.933 83.4975 269.359 83.9748 270.324C85.2759 272.952 82.2852 275.502 85.6643 277.5C89.9637 280.042 95.0667 283.339 94.8281 284.462C94.4099 286.431 92.9843 287.359 91.7816 287.762C90.7893 288.094 89.769 287.364 88.8868 287.441C86.468 287.653 85.9174 292.006 85.6643 294.185C85.425 296.245 89.5906 296.036 91.7647 296.6C94.9098 297.416 99.0678 300.683 101.406 302.462C101.923 302.855 102.606 303.103 103.013 303.506C104.891 305.361 104.226 309.206 104.464 310.811C104.641 312.003 105.99 312.585 106.313 313.547C106.467 314.006 110.408 318.311 110.005 318C105.106 314.215 105.662 297.203 107.672 290.999C109.283 286.027 112.093 284.158 113.78 282.628C115.649 280.933 118.822 276.465 120.852 273.471C123.018 270.276 126.872 268.251 128.803 267.12C131.189 265.724 133.939 263.912 136.511 262.305C141.442 259.222 143.416 257.482 146.875 255.874C149.807 254.511 158.321 254.744 163.026 253.864C165.465 253.408 167.365 252.661 170.096 251.133C171.899 250.124 173.631 249.441 175.562 248.961C177.494 248.482 179.416 248.159 181.426 247.595C184.008 246.871 187.919 246.549 191.055 246.549C193.243 246.549 183.301 250.714 178.64 253.129C176.654 254.158 174.297 254.421 167.755 254.662C162.489 254.856 153.26 254.744 147.95 254.585C139.549 254.333 137.015 253.461 134.525 253.218C131.692 252.941 129.784 252.497 127.294 252.254C122.1 251.746 114.686 251.533 112.428 250.731C109.405 249.656 108.892 242.721 108.485 239.728C108.114 237.005 107.118 226.235 106.718 219.564C106.563 216.983 105.836 214.425 105.272 208.828C104.904 205.177 105.19 198.479 105.349 193.764C105.733 182.385 108.555 175.09 110.005 170.876C111.128 167.617 113.221 164.292 114.423 162.277C115.007 161.299 115.954 160.749 116.036 160.582C118.712 155.152 109.22 173.904 107.284 176.162C105.786 177.91 105.036 180.498 102.789 185.068C100.866 188.981 98.7689 190.621 97.0817 193.032C95.2058 195.711 93.9484 199.771 92.7408 202.193C91.7934 204.093 90.574 207.956 88.4867 212.87C87.2478 215.787 86.3898 218.58 85.11 220.911C84.6255 221.955 84.4616 222.923 84.3821 223.885C84.3025 224.37 84.1435 224.847 83.9796 226.303" stroke="url(#paint2_linear_0_1)" stroke-width="47" stroke-linecap="round"/>
<path d="M56.5 301.5C56.5 275.335 56 239 56.5 234.5C57 230 59.5 214.5 64 203C65.9284 198.072 66 197 70.5 188.5C75 180 74.5 180.5 81 170.5C87.5 160.5 87.8345 161.094 92 156C96.5671 150.415 99.6422 147.689 105.125 143C109.547 139.218 112.06 137.075 117 134C122.709 130.446 132.5 126.5 132.5 126.5M132.5 126.5V227.5H212.5M132.5 126.5L133 77H301H313M212.5 227.5C212.5 227.5 215.633 231.232 217 234C218.449 236.935 219.125 238.748 219.5 242C219.997 246.307 219.908 249.107 218 253C216.237 256.597 211 261 211 261M212.5 227.5H341.5M211 261C211 261 205.444 265.117 201.5 267.5C196.714 270.392 193.708 271.465 188.5 273.5C183.151 275.59 180.672 276.434 175.106 277.846C168.571 279.502 162.5 280.5 154.5 281.5C154.5 281.5 146.011 282.3 141.5 285C137.472 287.411 135.5 289 133 293.5M211 261H331M133 293.5C130.572 297.871 130.5 301.5 130.5 306C130.5 310.5 130.5 317.5 130.5 317.5V342.5M133 293.5C199.78 293.5 304 293.5 304 293.5" stroke="#006CA2" stroke-width="15"/>
<circle cx="180" cy="180" r="171.5" stroke="white" stroke-width="17"/>
<path d="M249.5 111V151.25M249.5 191.5V151.25M249.5 151.25H285.5M249.5 151.25H211" stroke="url(#paint3_linear_0_1)" stroke-width="24"/>
<defs>
<linearGradient id="paint0_linear_0_1" x1="236.859" y1="337.852" x2="236.859" y2="90.968" gradientUnits="userSpaceOnUse">
<stop offset="0.00480769" stop-color="#E3F7FF"/>
<stop offset="1" stop-color="white"/>
</linearGradient>
<linearGradient id="paint1_linear_0_1" x1="156.424" y1="28.3152" x2="156.424" y2="265.625" gradientUnits="userSpaceOnUse">
<stop offset="0.375" stop-color="#63D3FF"/>
<stop offset="1" stop-color="white"/>
</linearGradient>
<linearGradient id="paint2_linear_0_1" x1="136.917" y1="159.6" x2="136.917" y2="318.016" gradientUnits="userSpaceOnUse">
<stop offset="0.475962" stop-color="#63D3FF"/>
<stop offset="1" stop-color="#5BF4FF"/>
</linearGradient>
<linearGradient id="paint3_linear_0_1" x1="248.25" y1="111" x2="248.25" y2="191.5" gradientUnits="userSpaceOnUse">
<stop offset="0.326923" stop-color="#49CBFF"/>
<stop offset="0.682692" stop-color="#40B9FF"/>
</linearGradient>
</defs>
</svg>
